<svg width="28" height="28" viewBox="0 0 28 28" fill="none" xmlns="http://www.w3.org/2000/svg">
<g id="iconUser">
<path id="Icon" fill-rule="evenodd" clip-rule="evenodd" d="M8.16671 18.6667H19.8334C23.055 18.6667 25.6667 21.2783 25.6667 24.5C25.6667 25.1443 25.1444 25.6667 24.5 25.6667C23.9017 25.6667 23.4086 25.2163 23.3412 24.6361L23.3274 24.2944C23.2249 22.5251 21.8083 21.1085 20.039 21.006L19.8334 21H8.16671C6.23371 21 4.66671 22.567 4.66671 24.5C4.66671 25.1443 4.14437 25.6667 3.50004 25.6667C2.85571 25.6667 2.33337 25.1443 2.33337 24.5C2.33337 21.3631 4.8094 18.8046 7.91367 18.6721L8.16671 18.6667H19.8334H8.16671ZM14 2.33334C17.866 2.33334 21 5.46735 21 9.33334C21 13.1993 17.866 16.3333 14 16.3333C10.134 16.3333 7.00004 13.1993 7.00004 9.33334C7.00004 5.46735 10.134 2.33334 14 2.33334ZM14 4.66668C11.4227 4.66668 9.33337 6.75601 9.33337 9.33334C9.33337 11.9107 11.4227 14 14 14C16.5774 14 18.6667 11.9107 18.6667 9.33334C18.6667 6.75601 16.5774 4.66668 14 4.66668Z" fill="white"/>
</g>
</svg>
