<svg width="20" height="21" viewBox="0 0 20 21" fill="none" xmlns="http://www.w3.org/2000/svg">
<g id="iconSearch">
<path id="Icon" fill-rule="evenodd" clip-rule="evenodd" d="M9.16669 2.16666C13.3088 2.16666 16.6667 5.52452 16.6667 9.66666C16.6667 11.4373 16.0531 13.0646 15.0269 14.3476L18.0893 17.4107C18.4147 17.7362 18.4147 18.2638 18.0893 18.5892C17.7889 18.8897 17.3162 18.9128 16.9893 18.6586L16.9108 18.5892L13.8477 15.5269C12.5647 16.5531 10.9373 17.1667 9.16669 17.1667C5.02455 17.1667 1.66669 13.8088 1.66669 9.66666C1.66669 5.52452 5.02455 2.16666 9.16669 2.16666ZM9.16669 3.83332C5.94503 3.83332 3.33335 6.445 3.33335 9.66666C3.33335 12.8883 5.94503 15.5 9.16669 15.5C12.3883 15.5 15 12.8883 15 9.66666C15 6.445 12.3883 3.83332 9.16669 3.83332Z" fill="white" fill-opacity="0.6"/>
</g>
</svg>
