<svg width="28" height="28" viewBox="0 0 28 28" fill="none" xmlns="http://www.w3.org/2000/svg">
<g id="iconWrite">
<path id="Icon" fill-rule="evenodd" clip-rule="evenodd" d="M24.5 23.3333C25.1444 23.3333 25.6667 23.8557 25.6667 24.5C25.6667 25.1443 25.1444 25.6667 24.5 25.6667H3.50004C2.85571 25.6667 2.33337 25.1443 2.33337 24.5C2.33337 23.8557 2.85571 23.3333 3.50004 23.3333H24.5ZM7.34175 15.5084L20.1751 2.67505C20.5956 2.25449 21.2574 2.22214 21.7151 2.578L21.825 2.67505L25.325 6.17505C25.7456 6.59562 25.7779 7.25739 25.4221 7.71506L25.325 7.82497L12.4917 20.6583C12.3093 20.8406 12.0729 20.9564 11.8201 20.9899L11.6667 21H8.16671C7.5684 21 7.07528 20.5496 7.00789 19.9694L7.00004 19.8333V16.3333C7.00004 16.0755 7.0854 15.8264 7.24047 15.624L7.34175 15.5084L20.1751 2.67505L7.34175 15.5084ZM21 5.14993L9.33337 16.8166V18.6667H11.1835L22.8501 7.00001L21 5.14993Z" fill="white"/>
</g>
</svg>
