<svg width="28" height="29" viewBox="0 0 28 29" fill="none" xmlns="http://www.w3.org/2000/svg">
<g id="iconHeartWhite">
<path id="Icon" fill-rule="evenodd" clip-rule="evenodd" d="M9.65071 6.27802C8.36971 6.27802 7.08987 6.74119 6.11454 7.66869C5.18121 8.55769 4.66671 9.73719 4.66671 10.9902C4.66671 12.242 5.18121 13.4215 6.11454 14.3105L14 21.8145L21.8855 14.3105C22.8189 13.4215 23.3334 12.242 23.3334 10.9902C23.3334 9.73836 22.8189 8.55769 21.8855 7.66869C19.936 5.81369 16.7627 5.81369 14.8132 7.66869L14 8.44336L13.1869 7.66869C12.2115 6.74119 10.9317 6.27802 9.65071 6.27802ZM14 24.9995L4.48821 15.9474C3.09871 14.6255 2.33337 12.865 2.33337 10.9902C2.33337 9.11536 3.09871 7.35486 4.48821 6.03186C7.07821 3.56669 11.144 3.34502 14 5.36336C16.856 3.34502 20.9219 3.56669 23.5119 6.03186C24.9014 7.35486 25.6667 9.11536 25.6667 10.9902C25.6667 12.865 24.9014 14.6255 23.5119 15.9474L14 24.9995Z" fill="white"/>
</g>
</svg>
